<svg width="128" height="30" xmlns="http://www.w3.org/2000/svg"><g fill="none" fill-rule="evenodd"><path d="M40 19.926h-9.966l-.001-.07c-.148-5.374-4.55-9.685-9.96-9.685-5.433 0-9.85 4.348-9.96 9.755H.146C.147 8.921 9.068 0 20.074 0 31.079 0 40 8.921 40 19.926z" fill="#FE9F84"></path><path d="M30.037 19.475c-4.46.29-13.724.29-19.927 0 0 5.614 4.461 10.166 9.964 10.166 5.502 0 9.963-4.552 9.963-10.166z" fill="#2AA6D5"></path><path d="M55.365 20.87c1.659 0 3.115-.83 3.945-2.12l-1.66-.996a2.661 2.661 0 01-2.285 1.254c-1.493 0-2.636-1.235-2.636-2.71 0-1.475 1.143-2.691 2.636-2.691.94 0 1.733.424 2.23 1.161l1.66-.977c-.83-1.253-2.25-2.064-3.89-2.064-2.562 0-4.626 2.027-4.626 4.571 0 2.525 2.064 4.571 4.626 4.571zm9.799 0c2.599 0 4.645-2.065 4.645-4.572 0-2.525-2.046-4.571-4.645-4.571-2.58 0-4.627 2.046-4.627 4.571 0 2.507 2.046 4.571 4.627 4.571zm0-1.862c-1.512 0-2.636-1.254-2.636-2.71s1.124-2.691 2.636-2.691c1.53 0 2.654 1.235 2.654 2.691 0 1.456-1.124 2.71-2.654 2.71zm11.218 1.64l3.594-8.755h-2.138l-2.507 6.396-2.47-6.396h-2.138l3.594 8.755h2.065zm9.209.221c1.714 0 2.893-.756 3.65-1.788l-1.346-1.05c-.498.663-1.364 1.069-2.36 1.069-1.456 0-2.433-.922-2.69-2.194h6.948c.018-.202.037-.46.037-.608 0-2.58-1.733-4.571-4.48-4.571-2.58 0-4.441 2.138-4.441 4.534 0 2.415 1.696 4.608 4.682 4.608zm2.267-5.4H82.88c.295-1.217 1.29-1.954 2.525-1.954 1.42 0 2.267.756 2.452 1.954zm6.057 5.179v-4.7c0-1.677 1.069-2.341 3.078-2.341h.221v-1.88h-.406c-1.345 0-2.359.442-2.893 1.161v-.995H91.96v8.755h1.954zm13.65.221c.37 0 .701-.074 1.07-.147v-1.733c-.166.037-.35.037-.461.037-.848 0-1.032-.406-1.032-1.161V7.008h-1.954v4.885h-3.816v-1.825c0-1.124.461-1.4 1.254-1.4.424 0 1.014.091 1.069.11V7.045c-.424-.147-1.106-.221-1.585-.221-1.77 0-2.691 1.032-2.691 3.004v2.065h-1.29v1.88h1.29v6.875h1.953v-6.875h3.816v4.534c0 1.604.7 2.562 2.378 2.562zm6.776 0c1.715 0 2.894-.756 3.65-1.788l-1.346-1.05c-.497.663-1.364 1.069-2.359 1.069-1.456 0-2.433-.922-2.691-2.194h6.949c.018-.202.037-.46.037-.608 0-2.58-1.733-4.571-4.48-4.571-2.58 0-4.441 2.138-4.441 4.534 0 2.415 1.695 4.608 4.681 4.608zm2.268-5.4h-4.977c.295-1.217 1.29-1.954 2.525-1.954 1.42 0 2.267.756 2.452 1.954zm4.84 5.179l1.972-2.95 1.99 2.95h2.305l-3.041-4.479 2.875-4.276h-2.267l-1.751 2.58-1.733-2.58h-2.285l2.764 4.11-3.115 4.645h2.286z" fill="#374858" fill-rule="nonzero"></path></g></svg>