<?xml version="1.0" encoding="UTF-8"?>
<svg xmlns="http://www.w3.org/2000/svg" xmlns:xlink="http://www.w3.org/1999/xlink" width="512" height="512" viewBox="0 0 58 58" version="1.1"><!-- Generator: Sketch 51.3 (57544) - http://www.bohemiancoding.com/sketch --><title>036 - Device Cover</title><desc>Created with Sketch.</desc><defs/><g id="Page-1" stroke="none" stroke-width="1" fill="none" fill-rule="evenodd"><g id="036---Device-Cover" transform="translate(0.000000, -1.000000)" fill-rule="nonzero"><path d="M55,28.26 L55,54 L3,54 L3,15 C3.0032948,13.8967981 3.89679813,13.0032948 5,13 L30,13" id="Shape" fill="#547580"/><path d="M51,31.2 L51,51 L7,51 L7,18 C7,17.4477153 7.44771525,17 8,17 L30,17" id="Shape" fill="#90BAE1"/><path d="M42.4,25.39 C25.8,32.02 14.94,45.85 11.33,51 L7,51 L7,18 C7,17.4477153 7.44771525,17 8,17 L30,17 L42.4,25.39 Z" id="Shape" fill="#B0D3F0"/><path d="M58,51.5 L58,55 C58.0030533,55.3377372 57.9593041,55.6742693 57.87,56 C57.416779,57.766642 55.8238506,59.0014703 54,59 L4,59 C2.17614936,59.0014703 0.583220957,57.766642 0.13,56 C0.0406958828,55.6742693 -0.00305328264,55.3377372 -1.41553436e-15,55 L-1.41553436e-15,51.5 C-1.41553436e-15,51.2238576 0.223857625,51 0.5,51 L57.5,51 C57.7761424,51 58,51.2238576 58,51.5 Z" id="Shape" fill="#95A5A5"/><path d="M36.382,55 L21.618,55 C21.2393343,54.9997978 20.8932635,54.7857294 20.724,54.447 L19,51 L39,51 L37.276,54.447 C37.1067365,54.7857294 36.7606657,54.9997978 36.382,55 Z" id="Shape" fill="#7F8C8D"/><path d="M9,55 C9,55.5522847 8.55228475,56 8,56 L0.13,56 C0.0406958828,55.6742693 -0.00305328264,55.3377372 4.4408921e-16,55 L4.4408921e-16,54 L8,54 C8.55228475,54 9,54.4477153 9,55 Z" id="Shape" fill="#7F8C8D"/><path d="M14,56 L12,56 C11.4477153,56 11,55.5522847 11,55 C11,54.4477153 11.4477153,54 12,54 L14,54 C14.5522847,54 15,54.4477153 15,55 C15,55.5522847 14.5522847,56 14,56 Z" id="Shape" fill="#7F8C8D"/><path d="M58,54 L58,55 C58.0030533,55.3377372 57.9593041,55.6742693 57.87,56 L50,56 C49.4477153,56 49,55.5522847 49,55 C49,54.4477153 49.4477153,54 50,54 L58,54 Z" id="Shape" fill="#7F8C8D"/><path d="M46,56 L44,56 C43.4477153,56 43,55.5522847 43,55 C43,54.4477153 43.4477153,54 44,54 L46,54 C46.5522847,54 47,54.4477153 47,55 C47,55.5522847 46.5522847,56 46,56 Z" id="Shape" fill="#7F8C8D"/><path d="M11,25 C10.5956041,24.9999137 10.2310659,24.7562725 10.076322,24.3826546 C9.92157809,24.0090366 10.0070921,23.5789943 10.293,23.293 L13.293,20.293 C13.6853789,19.9140278 14.3090848,19.9194476 14.6948186,20.3051814 C15.0805524,20.6909152 15.0859722,21.3146211 14.707,21.707 L11.707,24.707 C11.5195073,24.8945494 11.2651948,24.9999434 11,25 Z" id="Shape" fill="#FFFFFF"/><path d="M12,31 C11.5956041,30.9999137 11.2310659,30.7562725 11.076322,30.3826546 C10.9215781,30.0090366 11.0070921,29.5789943 11.293,29.293 L19.293,21.293 C19.6853789,20.9140278 20.3090848,20.9194476 20.6948186,21.3051814 C21.0805524,21.6909152 21.0859722,22.3146211 20.707,22.707 L12.707,30.707 C12.5195073,30.8945494 12.2651948,30.9999434 12,31 Z" id="Shape" fill="#FFFFFF"/><path d="M13,37 C12.5956041,36.9999137 12.2310659,36.7562725 12.076322,36.3826546 C11.9215781,36.0090366 12.0070921,35.5789943 12.293,35.293 L25.293,22.293 C25.6853789,21.9140278 26.3090848,21.9194476 26.6948186,22.3051814 C27.0805524,22.6909152 27.0859722,23.3146211 26.707,23.707 L13.707,36.707 C13.5195073,36.8945494 13.2651948,36.9999434 13,37 Z" id="Shape" fill="#FFFFFF"/><path d="M44.29,35.928 L54.131,28.922 C56.5521985,27.2095836 57.9940717,24.4305585 58,21.465 L58,7.332 C58.0002955,7.13291949 57.8824606,6.95263207 57.7,6.873 L44.2,1.041 C44.0724748,0.985343426 43.9275252,0.985343426 43.8,1.041 L30.3,6.873 C30.1175394,6.95263207 29.9997045,7.13291949 30,7.332 L30,21.465 C30.0059283,24.4305585 31.4478015,27.2095836 33.869,28.922 L43.71,35.928 C43.8835822,36.051589 44.1164178,36.051589 44.29,35.928 Z" id="Shape" fill="#894B9D"/><path d="M36.188,25.664 C34.8239601,24.6992838 34.0092071,23.1356877 34,21.465 L34,9.633 L44,5.313 L54,9.633 L54,21.465 C53.991115,23.1360413 53.1763259,24.7000788 51.812,25.665 L44,31.225 L36.188,25.664 Z" id="Shape" fill="#B49ACA"/><path d="M42,23.955 C41.7836298,23.955 41.5730962,23.8848221 41.4,23.755 L37.4,20.755 C37.1141875,20.5406406 36.9644453,20.1900853 37.0071797,19.8353848 C37.0499141,19.4806842 37.2786328,19.1757259 37.6071797,19.0353848 C37.9357266,18.8950436 38.3141875,18.9406406 38.6,19.155 L41.825,21.573 L49.219,12.33 C49.5650579,11.9027006 50.1911792,11.8349554 50.6206245,12.1783466 C51.0500699,12.5217379 51.1217114,13.1474254 50.781,13.579 L42.781,23.579 C42.5913371,23.8165116 42.3039469,23.954871 42,23.955 Z" id="Shape" fill="#3D324C"/></g></g></svg>
