<svg width="155" height="22" viewBox="0 0 155 22" fill="none" xmlns="http://www.w3.org/2000/svg">
<path d="M46.918 13.7617C46.9142 12.862 47.0891 11.9706 47.4326 11.14C47.776 10.3094 48.2809 9.55644 48.9177 8.92539C49.5544 8.29434 50.3101 7.79799 51.1402 7.46555C51.9703 7.13311 52.858 6.97132 53.7512 6.98969C54.874 6.98725 55.9801 7.26352 56.9717 7.79408C57.9633 8.32464 58.8098 9.09313 59.4363 10.0316L56.6074 11.7659C56.2894 11.2977 55.8634 10.9141 55.3659 10.648C54.8685 10.382 54.3144 10.2413 53.7512 10.238C52.8342 10.238 51.9547 10.6049 51.3063 11.258C50.6579 11.9111 50.2936 12.7968 50.2936 13.7204C50.2936 14.644 50.6579 15.5297 51.3063 16.1828C51.9547 16.8359 52.8342 17.2027 53.7512 17.2027C54.3449 17.2083 54.93 17.0591 55.4496 16.7697C55.9692 16.4803 56.4057 16.0605 56.7167 15.551L59.45 17.3129C58.8348 18.2736 57.9916 19.0649 56.9966 19.6153C56.0017 20.1656 54.8863 20.4576 53.7512 20.4649C52.8652 20.4776 51.9855 20.3142 51.1623 19.9841C50.3392 19.6539 49.5888 19.1635 48.9541 18.5408C48.3193 17.9182 47.8128 17.1756 47.4634 16.3555C47.1141 15.5354 46.9287 14.654 46.918 13.7617Z" fill="#34374D"/>
<path d="M60.582 13.7655C60.5836 12.8699 60.7627 11.9836 61.1087 11.1586C61.4547 10.3335 61.9607 9.58636 62.5971 8.9608C63.2335 8.33525 63.9874 7.84389 64.8148 7.51554C65.6421 7.18718 66.5262 7.02843 67.4152 7.04858C68.7307 7.07839 70.0082 7.49869 71.0875 8.25676C72.1668 9.01484 72.9999 10.077 73.4823 11.3099C73.9647 12.5429 74.075 13.8919 73.7993 15.1878C73.5236 16.4837 72.8742 17.6687 71.9326 18.5944C70.9909 19.52 69.7988 20.1451 68.5059 20.3912C67.2129 20.6373 65.8766 20.4935 64.6645 19.9779C63.4523 19.4622 62.4183 18.5976 61.6921 17.4924C60.9658 16.3873 60.5797 15.0908 60.582 13.7655ZM70.7497 13.7655C70.7362 13.0978 70.527 12.4489 70.1482 11.9007C69.7695 11.3524 69.2383 10.9292 68.6213 10.6843C68.0044 10.4394 67.3293 10.3837 66.681 10.5243C66.0327 10.6649 65.4402 10.9954 64.9779 11.4743C64.5157 11.9532 64.2044 12.5591 64.0832 13.2157C63.9621 13.8724 64.0364 14.5505 64.2969 15.1646C64.5574 15.7788 64.9925 16.3017 65.5473 16.6675C66.1022 17.0333 66.7521 17.2256 67.4152 17.2203C67.8644 17.2204 68.3091 17.1308 68.7238 16.9569C69.1384 16.7829 69.5148 16.528 69.8311 16.2068C70.1475 15.8856 70.3975 15.5046 70.5669 15.0855C70.7363 14.6665 70.8217 14.2179 70.8181 13.7655H70.7497Z" fill="#34374D"/>
<path d="M88.4494 7.008L83.3519 20.4832H79.7167L74.6602 6.98047H78.35L81.507 16.3264L84.7732 7.008H88.4494Z" fill="#34374D"/>
<path d="M101.17 13.7627C101.17 14.0379 101.17 14.4646 101.17 14.8225H91.6036C91.7634 15.6089 92.1999 16.3108 92.8327 16.7989C93.4654 17.287 94.252 17.5285 95.0475 17.479C95.6369 17.5061 96.2246 17.396 96.765 17.1573C97.3054 16.9186 97.7839 16.5577 98.1634 16.1026L100.323 17.8919C99.717 18.7374 98.9139 19.4196 97.9843 19.8781C97.0547 20.3366 96.0273 20.5574 94.9928 20.5209C94.0918 20.5612 93.1922 20.4135 92.3505 20.0872C91.5088 19.7608 90.7432 19.2628 90.1016 18.6244C89.46 17.986 88.9563 17.2209 88.6222 16.3772C88.288 15.5334 88.1305 14.6293 88.1597 13.7214C88.147 12.8523 88.3058 11.9893 88.6269 11.1824C88.9479 10.3756 89.4249 9.64104 90.03 9.02132C90.6352 8.40159 91.3565 7.90906 92.1521 7.57229C92.9477 7.23552 93.8018 7.06121 94.6648 7.05948C95.5411 7.02508 96.4148 7.17613 97.2296 7.50287C98.0444 7.82961 98.782 8.32479 99.395 8.95644C100.008 9.58809 100.483 10.3422 100.788 11.17C101.094 11.9979 101.224 12.8811 101.17 13.7627ZM97.7944 12.3862C97.6893 11.6742 97.3114 11.0319 96.7417 10.5971C96.172 10.1622 95.4559 9.96947 94.7468 10.0601C94.03 10.0288 93.3236 10.2411 92.7411 10.663C92.1586 11.0849 91.7339 11.6919 91.5352 12.3862H97.7944Z" fill="#34374D"/>
<path d="M111.639 6.99279V10.2412H111.393C108.551 10.2412 107.047 11.012 107.047 13.3656V20.468H103.617V7.24055H107.047V8.38298C107.608 7.89355 108.258 7.52008 108.961 7.2839C109.665 7.04773 110.408 6.95349 111.147 7.00656L111.639 6.99279Z" fill="#34374D"/>
<path d="M113.543 7.46032V4.50101C113.543 1.74816 114.841 0.000103652 117.547 0.000103652C118.401 -0.00388422 119.251 0.107216 120.075 0.330445V3.33105C119.559 3.2578 119.039 3.21185 118.517 3.19341C117.465 3.19341 116.932 3.56504 116.932 4.9277V7.46032H119.119V10.6811H116.932V20.4813H113.543V10.6811" fill="#34374D"/>
<path d="M121.55 16.6434V0.222656H124.939V15.8588C124.939 16.726 125.185 17.2352 126.306 17.2352C126.474 17.2467 126.643 17.2467 126.812 17.2352V20.2496C126.341 20.3893 125.854 20.4634 125.363 20.4698C124.85 20.5261 124.331 20.466 123.844 20.2938C123.357 20.1216 122.914 19.8417 122.548 19.4748C122.183 19.1078 121.903 18.663 121.731 18.1731C121.558 17.6831 121.496 17.1604 121.55 16.6434Z" fill="#34374D"/>
<path d="M140.738 13.7644C140.738 14.0397 140.738 14.4664 140.738 14.8243H131.172C131.332 15.6107 131.768 16.3125 132.401 16.8006C133.034 17.2887 133.82 17.5302 134.616 17.4808C135.205 17.5079 135.793 17.3978 136.333 17.1591C136.874 16.9204 137.352 16.5594 137.732 16.1043L139.85 17.8937C139.244 18.7391 138.441 19.4213 137.512 19.8798C136.582 20.3384 135.555 20.5591 134.52 20.5227C133.619 20.563 132.72 20.4153 131.878 20.0889C131.036 19.7626 130.271 19.2646 129.629 18.6261C128.987 17.9877 128.484 17.2226 128.15 16.3789C127.815 15.5352 127.658 14.631 127.687 13.7231C127.674 12.854 127.833 11.991 128.154 11.1842C128.475 10.3774 128.952 9.64279 129.557 9.02307C130.163 8.40334 130.884 7.91081 131.679 7.57404C132.475 7.23726 133.329 7.06296 134.192 7.06123C135.072 7.02088 135.95 7.16752 136.77 7.4916C137.589 7.81569 138.332 8.30997 138.95 8.94227C139.567 9.57457 140.046 10.3307 140.354 11.1616C140.662 11.9924 140.793 12.8792 140.738 13.7644ZM137.363 12.388C137.245 11.6778 136.856 11.0424 136.278 10.6178C135.701 10.1933 134.982 10.0135 134.274 10.1169C133.571 10.0916 132.88 10.3004 132.306 10.711C131.733 11.1215 131.311 11.711 131.104 12.388H137.363Z" fill="#34374D"/>
<path d="M154.446 6.98047H150.524L147.995 10.9033V10.8895L145.494 6.98047H141.559L146.109 13.7525L141.559 20.4832H145.467L148.009 16.6017V16.6292L150.537 20.4832H154.446L150.182 13.7525L154.446 6.98047Z" fill="#34374D"/>
<path fill-rule="evenodd" clip-rule="evenodd" d="M35.3008 21.2188C35.0939 17.4563 33.6536 13.7361 30.9438 10.711C24.6137 3.64431 13.7535 3.04719 6.68684 9.37728C3.1564 12.5397 1.2407 16.8328 0.996803 21.2187L35.3008 21.2188Z" fill="url(#paint0_linear)"/>
<path fill-rule="evenodd" clip-rule="evenodd" d="M35.3008 21.2188C35.0939 17.4563 33.6536 13.7361 30.9438 10.711C24.6137 3.64431 13.7535 3.04719 6.68684 9.37728C3.1564 12.5397 1.2407 16.8328 0.996803 21.2187L35.3008 21.2188Z" fill="url(#paint1_linear)"/>
<defs>
<linearGradient id="paint0_linear" x1="19.6848" y1="4.18045" x2="24.2952" y2="21.2665" gradientUnits="userSpaceOnUse">
<stop stop-color="#FE685B"/>
<stop offset="1" stop-color="#FF8B81"/>
</linearGradient>
<linearGradient id="paint1_linear" x1="19.6848" y1="4.18045" x2="24.2952" y2="21.2665" gradientUnits="userSpaceOnUse">
<stop stop-color="#FE685B"/>
<stop offset="1" stop-color="#FF8B81"/>
</linearGradient>
</defs>
</svg>
